<svg width="221" height="40" viewBox="0 0 221 40" fill="none" xmlns="http://www.w3.org/2000/svg">
<path d="M145.323 0H149.082C151.663 0.323466 154.318 0.58917 156.696 1.74007C159.24 2.89242 161.428 5.07581 162.18 7.8065C163.217 11.1004 162.593 14.6267 161.74 17.8874C160.648 21.3762 160.025 25.044 158.297 28.3061C156.62 31.8758 153.976 35.0527 150.529 37.0325C146.683 39.2635 142.131 40.0318 137.724 39.857C134.25 39.7213 130.609 39.1711 127.677 37.174C125.24 35.5682 123.659 32.8318 123.302 29.961C122.819 25.9726 124.073 22.1242 125.113 18.335C126.5 12.9675 128.816 7.47726 133.388 4.05054C136.778 1.39495 141.094 0.319134 145.323 0ZM145.456 8.28736C142.674 8.59783 141.021 11.2318 140.264 13.6765C139.176 17.4773 138.187 21.3097 137.16 25.1292C136.714 26.7841 136.189 28.657 137.056 30.2744C138.067 32.0188 140.512 31.8397 142.118 31.0917C144.057 30.013 145.036 27.8715 145.686 25.8527C146.72 22.0549 147.711 18.2455 148.748 14.4462C149.124 13.0975 149.386 11.6433 149.011 10.2643C148.72 8.70036 146.898 7.98411 145.456 8.28736Z" fill="#BCBDC0"/>
<path d="M68.7113 0H72.4709C76.5839 0.420217 81.2139 1.23899 83.9163 4.70614C86.0191 7.2982 86.358 10.8188 85.9004 14.0101C85.1777 18.0361 84.0235 21.9928 82.7186 25.8657C81.1748 30.0029 78.636 33.948 74.8735 36.3899C70.6519 39.2245 65.4036 40.1112 60.3941 39.8368C57.3992 39.6289 54.3101 39.1119 51.6961 37.5552C49.1472 36.156 47.3716 33.5653 46.8083 30.7365C45.9538 26.413 47.4469 22.1184 48.5983 17.9971C49.8872 12.8881 52.1479 7.72996 56.368 4.3639C59.8134 1.50325 64.3203 0.33935 68.7113 0ZM68.7041 8.29892C66.6795 8.56607 65.1023 10.1964 64.2942 11.9827C62.846 15.252 62.3261 18.8318 61.2602 22.2296C60.7562 24.8289 59.3166 27.4715 60.2957 30.1314C61.2819 32.0058 63.922 31.9596 65.5759 31.0152C68.3623 29.3993 69.043 25.9682 69.8047 23.1134C70.5578 20.1733 71.3688 17.2477 72.1494 14.3134C72.4999 12.9126 72.8344 11.3545 72.2696 9.9639C71.8323 8.5083 70.0408 8.07509 68.7041 8.29892Z" fill="url(#paint0_linear_321_12185)"/>
<path d="M10.1637 0.443321C14.8762 0.421661 19.5888 0.436101 24.3013 0.436101C20.8096 13.4209 17.3426 26.4144 13.8596 39.4022C9.28461 39.444 4.7082 39.4224 0.13324 39.4123C2.08545 31.4498 4.41131 23.5639 6.39249 15.6058C4.53152 16.7422 2.30993 17.135 0.152067 17.0426C0.941353 13.8209 1.86243 10.6325 2.65751 7.41083C2.75599 7.0065 2.9486 6.47798 3.56555 6.72491C6.97323 6.47509 9.29185 3.49892 10.1637 0.443321Z" fill="url(#paint1_linear_321_12185)"/>
<path d="M34.52 0.451986C39.2355 0.417329 43.9524 0.427437 48.6678 0.444765C45.2862 13.4195 41.7786 26.3798 38.2695 39.317C33.7727 39.5596 29.0544 39.3617 24.4737 39.4152C26.6185 31.483 28.7575 23.5495 30.8502 15.6029C28.9806 16.7148 26.7734 17.1451 24.6127 17.0354C25.4165 13.613 26.3448 10.2195 27.2731 6.83032C30.8546 6.74946 33.7684 3.82671 34.52 0.451986Z" fill="url(#paint2_linear_321_12185)"/>
<path d="M88.7766 0.440426C93.2139 0.430318 97.6513 0.423097 102.089 0.443314C102.394 10.0202 102.38 19.6 102.693 29.1754C103.143 29.2361 103.121 28.6296 103.305 28.348C107.31 19.0498 111.205 9.70108 115.291 0.438982C120.022 0.433206 124.755 0.418765 129.486 0.444758C123.014 13.431 116.606 26.4707 110.037 39.4079C103.828 39.4296 97.6165 39.4383 91.4094 39.405C90.3725 26.4303 89.7353 13.4238 88.7766 0.440426Z" fill="#BCBDC0"/>
<path d="M170.347 0.453424C174.933 0.417323 179.521 0.421655 184.108 0.45198C182.415 2.04765 180.618 3.54656 178.972 5.18844C180.237 5.21732 181.504 5.17689 182.773 5.20577C180.8 13.1697 178.455 21.0686 176.402 29.0224C179.443 29.0469 182.486 28.9964 185.527 29.0368C184.623 32.4996 183.678 35.9552 182.751 39.4137C175.127 39.4267 167.502 39.431 159.879 39.4123C163.263 26.4115 166.799 13.4152 170.347 0.453424Z" fill="#BCBDC0"/>
<path d="M189.119 0.4491C199.744 0.405778 210.373 0.453432 221 0.425995V0.658486C220.043 3.66643 219.329 6.74946 218.509 9.79639C215.491 9.88448 212.468 9.75596 209.452 9.84116C206.799 19.6823 204.112 29.5292 201.558 39.4007C196.939 39.4498 192.319 39.4166 187.702 39.4166C190.216 29.5336 193.075 19.7242 195.517 9.83105C192.516 9.78051 189.515 9.85849 186.516 9.8065C186.9 8.27581 187.371 6.7639 187.741 5.22744C189.08 5.12636 190.428 5.24765 191.773 5.18556C191.052 3.5278 189.86 2.09675 189.119 0.4491Z" fill="#BCBDC0"/>
<defs>
<linearGradient id="paint0_linear_321_12185" x1="0.108622" y1="39.8556" x2="85.9362" y2="-0.190103" gradientUnits="userSpaceOnUse">
<stop stop-color="#CF232A"/>
<stop offset="1" stop-color="#EF523A"/>
</linearGradient>
<linearGradient id="paint1_linear_321_12185" x1="0.108622" y1="39.8556" x2="85.9362" y2="-0.190103" gradientUnits="userSpaceOnUse">
<stop stop-color="#CF232A"/>
<stop offset="1" stop-color="#EF523A"/>
</linearGradient>
<linearGradient id="paint2_linear_321_12185" x1="0.108622" y1="39.8556" x2="85.9362" y2="-0.190103" gradientUnits="userSpaceOnUse">
<stop stop-color="#CF232A"/>
<stop offset="1" stop-color="#EF523A"/>
</linearGradient>
</defs>
</svg>
