<svg width="24" height="24" viewBox="0 0 24 24" fill="none" xmlns="http://www.w3.org/2000/svg">
<path d="M18.5984 4.79999C19.3941 4.79999 20.1571 5.11606 20.7198 5.67867C21.2824 6.24128 21.5984 7.00434 21.5984 7.79999V17.4C21.5984 18.1956 21.2824 18.9587 20.7198 19.5213C20.1571 20.0839 19.3941 20.4 18.5984 20.4H5.39844C4.60279 20.4 3.83973 20.0839 3.27712 19.5213C2.71451 18.9587 2.39844 18.1956 2.39844 17.4V7.79999C2.39844 7.00434 2.71451 6.24128 3.27712 5.67867C3.83973 5.11606 4.60279 4.79999 5.39844 4.79999H18.5984ZM20.3984 9.55319L12.3032 14.3172C12.2267 14.3621 12.1412 14.3895 12.0528 14.3974C11.9644 14.4053 11.8753 14.3935 11.792 14.3628L11.6936 14.3172L3.59844 9.55559V17.4C3.59844 17.8774 3.78808 18.3352 4.12565 18.6728C4.46321 19.0103 4.92105 19.2 5.39844 19.2H18.5984C19.0758 19.2 19.5337 19.0103 19.8712 18.6728C20.2088 18.3352 20.3984 17.8774 20.3984 17.4V9.55319ZM18.5984 5.99999H5.39844C4.92105 5.99999 4.46321 6.18963 4.12565 6.5272C3.78808 6.86476 3.59844 7.3226 3.59844 7.79999V8.16239L11.9984 13.104L20.3984 8.15999V7.79999C20.3984 7.3226 20.2088 6.86476 19.8712 6.5272C19.5337 6.18963 19.0758 5.99999 18.5984 5.99999V5.99999Z" fill="#7B54C9" stroke="#7B54C9" stroke-width="0.5"/>
</svg>
