<svg width="221" height="40" viewBox="0 0 221 40" fill="none" xmlns="http://www.w3.org/2000/svg">
<path d="M68.7113 0H72.4709C76.5839 0.420217 81.2139 1.23899 83.9163 4.70614C86.0191 7.2982 86.358 10.8188 85.9004 14.0101C85.1777 18.0361 84.0235 21.9928 82.7186 25.8657C81.1748 30.0029 78.636 33.948 74.8735 36.3899C70.6519 39.2245 65.4036 40.1112 60.3941 39.8368C57.3992 39.6289 54.3101 39.1119 51.696 37.5552C49.1472 36.156 47.3716 33.5653 46.8083 30.7365C45.9538 26.413 47.4469 22.1184 48.5983 17.9971C49.8872 12.8881 52.1479 7.72996 56.368 4.3639C59.8134 1.50325 64.3203 0.33935 68.7113 0ZM68.7041 8.29892C66.6794 8.56607 65.1023 10.1964 64.2942 11.9827C62.846 15.252 62.3261 18.8318 61.2602 22.2296C60.7562 24.8289 59.3166 27.4715 60.2956 30.1314C61.2819 32.0058 63.922 31.9596 65.5759 31.0152C68.3623 29.3993 69.043 25.9682 69.8047 23.1134C70.5578 20.1733 71.3688 17.2477 72.1494 14.3134C72.4999 12.9126 72.8344 11.3545 72.2696 9.9639C71.8322 8.5083 70.0408 8.07509 68.7041 8.29892Z" fill="white"/>
<path d="M145.323 0H149.082C151.663 0.323466 154.318 0.58917 156.696 1.74007C159.24 2.89242 161.428 5.07581 162.18 7.8065C163.217 11.1004 162.593 14.6267 161.74 17.8874C160.648 21.3762 160.025 25.044 158.297 28.3061C156.62 31.8758 153.976 35.0527 150.529 37.0325C146.683 39.2635 142.131 40.0318 137.724 39.857C134.25 39.7213 130.609 39.1711 127.677 37.174C125.24 35.5682 123.659 32.8318 123.302 29.961C122.819 25.9726 124.073 22.1242 125.113 18.335C126.5 12.9675 128.816 7.47726 133.388 4.05054C136.778 1.39495 141.094 0.319134 145.323 0ZM145.456 8.28736C142.674 8.59783 141.021 11.2318 140.264 13.6765C139.176 17.4773 138.187 21.3097 137.16 25.1292C136.714 26.7841 136.189 28.657 137.056 30.2744C138.067 32.0188 140.512 31.8397 142.118 31.0917C144.057 30.013 145.036 27.8715 145.686 25.8527C146.72 22.0549 147.711 18.2455 148.748 14.4462C149.124 13.0975 149.386 11.6433 149.011 10.2643C148.72 8.70036 146.898 7.98412 145.456 8.28736Z" fill="white"/>
<path d="M10.1637 0.443088C14.8762 0.421427 19.5888 0.435868 24.3013 0.435868C20.8096 13.4207 17.3426 26.4142 13.8596 39.4019C9.28461 39.4438 4.7082 39.4221 0.13324 39.412C2.08545 31.4496 4.41131 23.5637 6.39249 15.6055C4.53152 16.742 2.30993 17.1348 0.152067 17.0424C0.941352 13.8207 1.86243 10.6323 2.65751 7.4106C2.75599 7.00626 2.9486 6.47775 3.56555 6.72468C6.97323 6.47486 9.29185 3.49868 10.1637 0.443088Z" fill="white"/>
<path d="M34.52 0.451831C39.2355 0.417174 43.9523 0.427282 48.6678 0.44461C45.2862 13.4193 41.7786 26.3796 38.2695 39.3168C33.7727 39.5594 29.0544 39.3616 24.4736 39.415C26.6185 31.4829 28.7575 23.5493 30.8502 15.6027C28.9805 16.7146 26.7734 17.145 24.6127 17.0352C25.4164 13.6128 26.3448 10.2193 27.2731 6.83017C30.8546 6.7493 33.7684 3.82656 34.52 0.451831Z" fill="white"/>
<path d="M88.7766 0.440365C93.2139 0.430257 97.6513 0.423036 102.089 0.443253C102.394 10.0201 102.38 19.5999 102.693 29.1754C103.143 29.236 103.121 28.6295 103.305 28.3479C107.31 19.0498 111.205 9.70101 115.291 0.438921C120.022 0.433145 124.755 0.418704 129.486 0.444697C123.014 13.431 116.606 26.4707 110.037 39.4079C103.828 39.4295 97.6165 39.4382 91.4094 39.405C90.3725 26.4303 89.7353 13.4238 88.7766 0.440365Z" fill="white"/>
<path d="M170.347 0.453378C174.933 0.417277 179.521 0.421609 184.108 0.451934C182.415 2.0476 180.618 3.54652 178.972 5.1884C180.237 5.21728 181.504 5.17684 182.773 5.20572C180.8 13.1696 178.455 21.0685 176.402 29.0223C179.443 29.0469 182.486 28.9963 185.527 29.0368C184.623 32.4996 183.678 35.9552 182.751 39.4137C175.127 39.4267 167.502 39.431 159.879 39.4122C163.263 26.4115 166.799 13.4151 170.347 0.453378Z" fill="white"/>
<path d="M189.119 0.448886C199.744 0.405565 210.373 0.453218 221 0.425781V0.658272C220.043 3.66621 219.329 6.74925 218.509 9.79618C215.491 9.88426 212.468 9.75575 209.452 9.84094C206.799 19.6821 204.112 29.529 201.557 39.4005C196.939 39.4496 192.319 39.4164 187.702 39.4164C190.216 29.5334 193.075 19.724 195.517 9.83084C192.516 9.78029 189.515 9.85827 186.516 9.80629C186.9 8.2756 187.371 6.76369 187.741 5.22723C189.08 5.12614 190.428 5.24744 191.773 5.18535C191.052 3.52759 189.86 2.09654 189.119 0.448886Z" fill="white"/>
</svg>
