<svg width="25" height="24" viewBox="0 0 25 24" fill="none" xmlns="http://www.w3.org/2000/svg">
<path d="M2.66669 6C2.66669 5.73478 2.77204 5.48043 2.95958 5.29289C3.14712 5.10536 3.40147 5 3.66669 5H21.6667C21.9319 5 22.1863 5.10536 22.3738 5.29289C22.5613 5.48043 22.6667 5.73478 22.6667 6C22.6667 6.26522 22.5613 6.51957 22.3738 6.70711C22.1863 6.89464 21.9319 7 21.6667 7H3.66669C3.40147 7 3.14712 6.89464 2.95958 6.70711C2.77204 6.51957 2.66669 6.26522 2.66669 6ZM2.66669 12.032C2.66669 11.7668 2.77204 11.5124 2.95958 11.3249C3.14712 11.1374 3.40147 11.032 3.66669 11.032H21.6667C21.9319 11.032 22.1863 11.1374 22.3738 11.3249C22.5613 11.5124 22.6667 11.7668 22.6667 12.032C22.6667 12.2972 22.5613 12.5516 22.3738 12.7391C22.1863 12.9266 21.9319 13.032 21.6667 13.032H3.66669C3.40147 13.032 3.14712 12.9266 2.95958 12.7391C2.77204 12.5516 2.66669 12.2972 2.66669 12.032ZM3.66669 17.064C3.40147 17.064 3.14712 17.1694 2.95958 17.3569C2.77204 17.5444 2.66669 17.7988 2.66669 18.064C2.66669 18.3292 2.77204 18.5836 2.95958 18.7711C3.14712 18.9586 3.40147 19.064 3.66669 19.064H21.6667C21.9319 19.064 22.1863 18.9586 22.3738 18.7711C22.5613 18.5836 22.6667 18.3292 22.6667 18.064C22.6667 17.7988 22.5613 17.5444 22.3738 17.3569C22.1863 17.1694 21.9319 17.064 21.6667 17.064H3.66669Z" fill="#9499A5"/>
</svg>
