<svg width="21" height="22" viewBox="0 0 21 22" fill="none" xmlns="http://www.w3.org/2000/svg">
<path d="M0.5 11C0.5 16.523 4.977 21 10.5 21C16.023 21 20.5 16.523 20.5 11C20.5 5.477 16.023 1 10.5 1C4.977 1 0.5 5.477 0.5 11Z" fill="white" stroke="#A51899" stroke-linecap="round" stroke-linejoin="round"/>
<path d="M11.5 1.05C11.5 1.05 14.5 5 14.5 11C14.5 17 11.5 20.95 11.5 20.95M9.5 20.95C9.5 20.95 6.5 17 6.5 11C6.5 5 9.5 1.05 9.5 1.05M1.13 14.5H19.87ZM1.13 7.5H19.87Z" fill="white"/>
<path d="M11.5 1.05C11.5 1.05 14.5 5 14.5 11C14.5 17 11.5 20.95 11.5 20.95M9.5 20.95C9.5 20.95 6.5 17 6.5 11C6.5 5 9.5 1.05 9.5 1.05M1.13 14.5H19.87M1.13 7.5H19.87" stroke="#A51899" stroke-linecap="round" stroke-linejoin="round"/>
</svg>
