<svg width="24" height="24" viewBox="0 0 24 24" fill="none" xmlns="http://www.w3.org/2000/svg">
<path d="M20.1194 5.08522C19.6503 4.61435 19.0932 4.24083 18.4802 3.98599C17.8671 3.73114 17.21 3.59998 16.5463 3.59998C15.8827 3.59998 15.2256 3.73114 14.6125 3.98599C13.9995 4.24083 13.4424 4.61435 12.9733 5.08522L11.9997 6.06197L11.026 5.08522C10.0784 4.13455 8.79312 3.60047 7.45297 3.60047C6.11281 3.60047 4.82754 4.13455 3.87991 5.08522C2.93228 6.03589 2.3999 7.32527 2.3999 8.66972C2.3999 10.0142 2.93228 11.3036 3.87991 12.2542L4.85355 13.231L11.9997 20.4L19.1458 13.231L20.1194 12.2542C20.5888 11.7836 20.9611 11.2248 21.2151 10.6097C21.4692 9.99469 21.5999 9.33547 21.5999 8.66972C21.5999 8.00397 21.4692 7.34475 21.2151 6.72971C20.9611 6.11467 20.5888 5.55586 20.1194 5.08522V5.08522Z" stroke="#242424" stroke-width="2" stroke-linecap="round" stroke-linejoin="round"/>
</svg>
