<svg width="16" height="16" viewBox="0 0 16 16" fill="none" xmlns="http://www.w3.org/2000/svg">
<path fill-rule="evenodd" clip-rule="evenodd" d="M4.97667 0.710672C5.75867 0.674672 6.008 0.666672 8 0.666672C9.992 0.666672 10.2413 0.675338 11.0227 0.710672C11.804 0.746005 12.3373 0.870672 12.804 1.05134C13.2927 1.23601 13.736 1.52467 14.1027 1.898C14.476 2.264 14.764 2.70667 14.948 3.19601C15.1293 3.66267 15.2533 4.19601 15.2893 4.97601C15.3253 5.75934 15.3333 6.00867 15.3333 8C15.3333 9.992 15.3247 10.2413 15.2893 11.0233C15.254 11.8033 15.1293 12.3367 14.948 12.8033C14.764 13.2927 14.4755 13.7361 14.1027 14.1027C13.736 14.476 13.2927 14.764 12.804 14.948C12.3373 15.1293 11.804 15.2533 11.024 15.2893C10.2413 15.3253 9.992 15.3333 8 15.3333C6.008 15.3333 5.75867 15.3247 4.97667 15.2893C4.19667 15.254 3.66334 15.1293 3.19667 14.948C2.70729 14.764 2.26389 14.4755 1.89734 14.1027C1.52426 13.7365 1.23555 13.2933 1.05134 12.804C0.870672 12.3373 0.746672 11.804 0.710672 11.024C0.674672 10.2407 0.666672 9.99134 0.666672 8C0.666672 6.008 0.675338 5.75867 0.710672 4.97734C0.746005 4.196 0.870672 3.66267 1.05134 3.19601C1.23582 2.70673 1.52475 2.26355 1.898 1.89734C2.26403 1.52434 2.70699 1.23563 3.19601 1.05134C3.66267 0.870672 4.19601 0.746672 4.97601 0.710672H4.97667ZM10.9633 2.03067C10.19 1.99534 9.958 1.98801 8 1.98801C6.042 1.98801 5.81 1.99534 5.03667 2.03067C4.32134 2.06334 3.93334 2.18267 3.67467 2.28334C3.33267 2.41667 3.08801 2.57467 2.83134 2.83134C2.58803 3.06804 2.40079 3.35619 2.28334 3.67467C2.18267 3.93334 2.06334 4.32134 2.03067 5.03667C1.99534 5.81 1.98801 6.042 1.98801 8C1.98801 9.958 1.99534 10.19 2.03067 10.9633C2.06334 11.6787 2.18267 12.0667 2.28334 12.3253C2.40067 12.6433 2.58801 12.932 2.83134 13.1687C3.06801 13.412 3.35667 13.5993 3.67467 13.7167C3.93334 13.8173 4.32134 13.9367 5.03667 13.9693C5.81 14.0047 6.04134 14.012 8 14.012C9.95867 14.012 10.19 14.0047 10.9633 13.9693C11.6787 13.9367 12.0667 13.8173 12.3253 13.7167C12.6673 13.5833 12.912 13.4253 13.1687 13.1687C13.412 12.932 13.5993 12.6433 13.7167 12.3253C13.8173 12.0667 13.9367 11.6787 13.9693 10.9633C14.0047 10.19 14.012 9.958 14.012 8C14.012 6.042 14.0047 5.81 13.9693 5.03667C13.9367 4.32134 13.8173 3.93334 13.7167 3.67467C13.5833 3.33267 13.4253 3.08801 13.1687 2.83134C12.932 2.58805 12.6438 2.40081 12.3253 2.28334C12.0667 2.18267 11.6787 2.06334 10.9633 2.03067ZM7.06334 10.2607C7.58644 10.4784 8.16892 10.5078 8.71129 10.3438C9.25366 10.1798 9.72227 9.83262 10.0371 9.3615C10.3519 8.89038 10.4934 8.32458 10.4374 7.76074C10.3814 7.1969 10.1313 6.66999 9.73 6.27C9.47416 6.01432 9.16481 5.81855 8.82423 5.69677C8.48364 5.57499 8.12029 5.53025 7.76033 5.56575C7.40038 5.60125 7.05277 5.71612 6.74254 5.90209C6.43231 6.08806 6.16717 6.3405 5.96621 6.64124C5.76525 6.94198 5.63346 7.28353 5.58035 7.64131C5.52723 7.99909 5.55411 8.3642 5.65903 8.71035C5.76396 9.0565 5.94433 9.37508 6.18715 9.64315C6.42998 9.91123 6.72922 10.1221 7.06334 10.2607ZM5.33467 5.33467C5.68469 4.98465 6.10022 4.70701 6.55754 4.51758C7.01486 4.32815 7.50501 4.23065 8 4.23065C8.495 4.23065 8.98515 4.32815 9.44247 4.51758C9.89979 4.70701 10.3153 4.98465 10.6653 5.33467C11.0154 5.68469 11.293 6.10022 11.4824 6.55754C11.6719 7.01486 11.7694 7.50501 11.7694 8C11.7694 8.495 11.6719 8.98515 11.4824 9.44247C11.293 9.89979 11.0154 10.3153 10.6653 10.6653C9.95845 11.3722 8.9997 11.7694 8 11.7694C7.00031 11.7694 6.04156 11.3722 5.33467 10.6653C4.62778 9.95845 4.23065 8.9997 4.23065 8C4.23065 7.00031 4.62778 6.04156 5.33467 5.33467ZM12.6053 4.79201C12.6921 4.71018 12.7615 4.61179 12.8095 4.50265C12.8576 4.39352 12.8832 4.27585 12.8849 4.15662C12.8867 4.0374 12.8645 3.91904 12.8197 3.80854C12.7748 3.69805 12.7083 3.59768 12.624 3.51336C12.5397 3.42905 12.4393 3.36251 12.3288 3.31768C12.2183 3.27286 12.0999 3.25066 11.9807 3.25239C11.8615 3.25413 11.7438 3.27977 11.6347 3.3278C11.5256 3.37583 11.4272 3.44527 11.3453 3.532C11.1862 3.70069 11.0991 3.92475 11.1025 4.15662C11.1059 4.3885 11.1995 4.60992 11.3634 4.7739C11.5274 4.93788 11.7488 5.03149 11.9807 5.03487C12.2126 5.03825 12.4367 4.95113 12.6053 4.79201Z" fill="white" fill-opacity="0.8"/>
</svg>
