<svg width="132" height="24" viewBox="0 0 132 24" fill="none" xmlns="http://www.w3.org/2000/svg">
<path d="M41.0402 0H43.2858C45.7424 0.25213 48.5078 0.743394 50.1219 2.82368C51.3779 4.37892 51.5803 6.49126 51.307 8.40607C50.8754 10.8217 50.186 13.1957 49.4066 15.5194C48.4845 18.0017 46.9681 20.3688 44.7208 21.8339C42.1993 23.5347 39.0646 24.0667 36.0725 23.9021C34.2837 23.7773 32.4386 23.4672 30.8773 22.5331C29.3549 21.6936 28.2944 20.1392 27.9579 18.4419C27.4475 15.8478 28.3393 13.271 29.027 10.7983C29.7969 7.73285 31.1472 4.63798 33.6678 2.61834C35.7256 0.90195 38.4175 0.20361 41.0402 0ZM41.0359 4.97935C39.8266 5.13964 38.8846 6.11784 38.402 7.1896C37.537 9.15119 37.2264 11.2991 36.5898 13.3378C36.2888 14.8973 35.4289 16.4829 36.0137 18.0788C36.6028 19.2035 38.1797 19.1757 39.1675 18.6091C40.8318 17.6396 41.2383 15.5809 41.6933 13.868C42.1431 12.104 42.6275 10.3486 43.0938 8.58802C43.3031 7.74758 43.5029 6.81271 43.1656 5.97834C42.9043 5.10498 41.8343 4.84505 41.0359 4.97935Z" fill="white"/>
<path d="M86.7991 0H89.0446C90.5861 0.194079 92.1716 0.353502 93.592 1.04404C95.1118 1.73545 96.4188 3.04549 96.8678 4.6839C97.4871 6.66022 97.1143 8.77603 96.6048 10.7324C95.9526 12.8257 95.5806 15.0264 94.5487 16.9837C93.547 19.1255 91.9675 21.0316 89.9088 22.2195C87.6113 23.5581 84.8926 24.0191 82.2604 23.9142C80.1852 23.8328 78.0106 23.5027 76.2598 22.3044C74.804 21.3409 73.8594 19.6991 73.6467 17.9766C73.3577 15.5835 74.1068 13.2745 74.7279 11.001C75.5566 7.78051 76.9397 4.48635 79.6706 2.43033C81.6955 0.836968 84.2733 0.19148 86.7991 0ZM86.8787 4.97242C85.217 5.1587 84.23 6.73906 83.7776 8.20592C83.128 10.4864 82.5372 12.7858 81.9239 15.0775C81.6575 16.0705 81.3435 17.1942 81.8616 18.1646C82.4654 19.2113 83.9255 19.1038 84.8848 18.655C86.0431 18.0078 86.6278 16.7229 87.0162 15.5116C87.6338 13.2329 88.2255 10.9473 88.8448 8.66773C89.0697 7.85848 89.2263 6.98599 89.0023 6.15856C88.8284 5.22022 87.7402 4.79047 86.8787 4.97242Z" fill="white"/>
<path d="M6.07061 0.265996C8.88534 0.253 11.7001 0.261664 14.5148 0.261664C12.4293 8.05257 10.3584 15.8487 8.27811 23.6413C5.54555 23.6664 2.81213 23.6534 0.0795746 23.6474C1.2456 18.8699 2.6348 14.1383 3.81813 9.36347C2.7066 10.0453 1.37968 10.281 0.0908197 10.2256C0.562248 8.29257 1.11239 6.3795 1.58728 4.4465C1.6461 4.2039 1.76115 3.88679 2.12964 4.03495C4.165 3.88506 5.54988 2.09935 6.07061 0.265996Z" fill="white"/>
<path d="M20.6183 0.271188C23.4347 0.250394 26.2521 0.256459 29.0685 0.266856C27.0487 8.05169 24.9537 15.8279 22.8578 23.5902C20.1719 23.7357 17.3538 23.617 14.6177 23.6491C15.8988 18.8898 17.1764 14.1297 18.4264 9.36173C17.3096 10.0289 15.9914 10.2871 14.7008 10.2212C15.1809 8.16779 15.7353 6.13169 16.2898 4.09819C18.429 4.04967 20.1693 2.29603 20.6183 0.271188Z" fill="white"/>
<path d="M53.0249 0.264257C55.6753 0.258192 58.3257 0.25386 60.976 0.26599C61.1586 6.01213 61.1499 11.76 61.3368 17.5053C61.6058 17.5417 61.5928 17.1778 61.7026 17.0088C64.0944 11.4299 66.4213 5.82065 68.8614 0.263391C71.6874 0.259925 74.5143 0.251261 77.3402 0.266856C73.4745 8.05863 69.6469 15.8825 65.7232 23.6448C62.0149 23.6578 58.3049 23.663 54.5975 23.643C53.9781 15.8582 53.5975 8.05429 53.0249 0.264257Z" fill="white"/>
<path d="M101.746 0.272054C104.485 0.250394 107.225 0.252993 109.965 0.271188C108.954 1.22859 107.88 2.12794 106.898 3.11307C107.653 3.13039 108.41 3.10613 109.167 3.12346C107.989 7.9018 106.589 12.6412 105.362 17.4134C107.179 17.4282 108.996 17.3978 110.813 17.4221C110.273 19.4998 109.708 21.5731 109.154 23.6482C104.601 23.656 100.047 23.6586 95.4933 23.6474C97.5148 15.8469 99.6263 8.04909 101.746 0.272054Z" fill="white"/>
<path d="M112.958 0.269455C119.304 0.243462 125.653 0.272054 132 0.255592V0.395087C131.428 2.19985 131.002 4.04967 130.512 5.87783C128.71 5.93068 126.904 5.85357 125.102 5.90469C123.518 11.8094 121.913 17.7175 120.387 23.6404C117.629 23.6699 114.869 23.65 112.112 23.65C113.613 17.7201 115.321 11.8345 116.779 5.89863C114.987 5.8683 113.195 5.91509 111.403 5.8839C111.633 4.96548 111.914 4.05834 112.135 3.13646C112.934 3.07581 113.74 3.14859 114.543 3.11133C114.113 2.11668 113.401 1.25805 112.958 0.269455Z" fill="white"/>
</svg>
